<svg xmlns="http://www.w3.org/2000/svg" viewBox="0 0 64 64" width="64" height="64" fill="none">
  <!-- Outer circular container -->
  <circle cx="32" cy="32" r="31" fill="#0F172A"/>
  <circle cx="32" cy="32" r="30.5" stroke="#334155" stroke-opacity="0.6" stroke-width="1.5"/>
  
  <!-- Calendar pins / temporal anchors at top -->
  <rect x="22" y="10" width="4" height="8" rx="2" fill="#94A3B8"/>
  <rect x="38" y="10" width="4" height="8" rx="2" fill="#94A3B8"/>
  
  <!-- Interlocking geometric 'S' scheduling path -->
  <path d="M44 23H24C20.6863 23 18 25.6863 18 29C18 32.3137 20.6863 35 24 35H40C43.3137 35 46 37.6863 46 41C46 44.3137 43.3137 47 40 47H20" stroke="#FFFFFF" stroke-width="4.5" stroke-linecap="round" stroke-linejoin="round"/>
  
  <!-- Precision sync nodes / status dots -->
  <circle cx="44" cy="23" r="3.5" fill="#6366F1"/>
  <circle cx="44" cy="23" r="1.5" fill="#FFFFFF"/>
  <circle cx="20" cy="47" r="3.5" fill="#10B981"/>
  <circle cx="20" cy="47" r="1.5" fill="#FFFFFF"/>
  
  <!-- Central alignment micro-tick -->
  <circle cx="32" cy="35" r="2" fill="#38BDF8"/>
</svg>
